<?xml version="1.0" standalone="no"?>
<!DOCTYPE svg PUBLIC "-//W3C//DTD SVG 1.1//EN" "http://www.w3.org/Graphics/SVG/1.1/DTD/svg11.dtd" >
<svg xmlns="http://www.w3.org/2000/svg">
  <metadata>Created by iconfont</metadata>
  <defs>
  <font id="iconfont" horiz-adv-x="1024">
    <font-face
      font-family="iconfont"
      font-weight="400"
      font-stretch="normal"
      units-per-em="1024"
      ascent="896"
      descent="-128"
    />
      <missing-glyph />
      
      <glyph glyph-name="edit" unicode="&#58975;" d="M770.048-128H253.952A254.293333 254.293333 0 0 0 0 125.952V547.669333A254.293333 254.293333 0 0 0 253.952 801.621333H512a46.250667 46.250667 0 0 0 0-92.330666H253.952a161.792 161.792 0 0 1-161.621333-161.621334v-421.717333a161.792 161.792 0 0 1 161.621333-161.621333h516.096a161.792 161.792 0 0 1 161.621333 161.621333V337.408a46.250667 46.250667 0 1 0 92.330667 0v-211.456A254.293333 254.293333 0 0 0 770.048-128zM439.808 213.333333a46.08 46.08 0 0 0-32.597333 78.506667L945.493333 829.781333a45.909333 45.909333 0 0 0 65.024-64.853333L472.234667 226.645333a45.226667 45.226667 0 0 0-32.426667-13.312z"  horiz-adv-x="1024" />
      
      <glyph glyph-name="delete" unicode="&#58976;" d="M774.997333-128H249.002667A184.149333 184.149333 0 0 0 65.024 55.978667V710.997333h893.952v-655.018666A184.149333 184.149333 0 0 0 774.997333-128zM156.672 627.370667v-563.2a92.501333 92.501333 0 0 1 92.330667-92.330667h525.994666a92.501333 92.501333 0 0 1 92.330667 92.330667v563.2zM978.261333 627.370667H45.738667a45.738667 45.738667 0 0 0 0 91.477333h932.522666a45.738667 45.738667 0 0 0 0-91.477333zM730.794667 804.352H293.205333a45.909333 45.909333 0 0 0 0 91.648h437.589334a45.909333 45.909333 0 0 0 0-91.648zM395.093333 126.464A53.077333 53.077333 0 0 0 341.333333 179.2V419.498667a53.077333 53.077333 0 0 0 106.154667 0V179.2a53.077333 53.077333 0 0 0-52.394667-52.736zM628.906667 126.464A53.077333 53.077333 0 0 0 575.829333 179.2V419.498667a53.077333 53.077333 0 0 0 106.154667 0V179.2a53.077333 53.077333 0 0 0-53.077333-52.736z"  horiz-adv-x="1024" />
      
      <glyph glyph-name="down" unicode="&#58977;" d="M632.689396-128a113.656778 113.656778 0 0 0-95.134932 51.566501L18.521845 720.426798a113.446302 113.446302 0 0 0 189.427963 123.970078l424.529113-650.158864 420.951028 649.737913a113.783063 113.783063 0 1 0 191.111767-123.549127L728.034804-76.223023a113.867253 113.867253 0 0 0-95.134932-51.776977z"  horiz-adv-x="1263" />
      
      <glyph glyph-name="up" unicode="&#58978;" d="M633.246204 896a112.974335 112.974335 0 0 1-94.563703-51.256874L22.766372 52.66751a112.765123 112.765123 0 1 1 188.290558-123.225709l421.980062 646.255038 418.423463-645.836615a113.099862 113.099862 0 1 1 189.964252 122.807286L728.019118 844.533914A113.183547 113.183547 0 0 1 633.455416 896z"  horiz-adv-x="1268" />
      
      <glyph glyph-name="hint" unicode="&#58979;" d="M512 896a512 512 0 1 1 512-512A512 512 0 0 1 512 896z m68.266667-751.957333a68.266667 68.266667 0 0 0-136.533334 0v273.066666a68.266667 68.266667 0 0 0 136.533334 0z m-68.266667 411.648a68.266667 68.266667 0 1 0 68.266667 68.266666 68.266667 68.266667 0 0 0-68.266667-68.266666z"  horiz-adv-x="1024" />
      
      <glyph glyph-name="updated" unicode="&#58973;" d="M512-126.293333c-281.6 0-512 228.693333-512 512S230.4 896 512 896c186.026667 0 356.693333-100.693333 447.146667-262.826667 11.946667-20.48 3.413333-47.786667-17.066667-59.733333s-47.786667-3.413333-59.733333 17.066667C807.253333 725.333333 665.6 808.96 512 808.96 278.186667 808.96 87.04 617.813333 87.04 384S278.186667-39.253333 512-39.253333 935.253333 150.186667 935.253333 384c0 23.893333 18.773333 44.373333 44.373334 44.373333S1024 409.6 1024 384c-1.706667-281.6-230.4-510.293333-512-510.293333zM945.493333 554.666667h-1.706666l-194.56 8.533333c-25.6 1.706667-44.373333 22.186667-44.373334 47.786667 1.706667 25.6 22.186667 46.08 47.786667 44.373333l148.48-6.826667 6.826667 148.48c1.706667 25.6 22.186667 46.08 47.786666 44.373334 25.6-1.706667 44.373333-22.186667 44.373334-47.786667l-8.533334-194.56c0-11.946667-5.12-23.893333-15.36-32.426667-8.533333-6.826667-20.48-11.946667-30.72-11.946666z"  horiz-adv-x="1024" />
      
      <glyph glyph-name="website1" unicode="&#58971;" d="M512 896a512 512 0 1 1 512-512A512 512 0 0 1 512 896z m303.5136-386.6624h-172.7488c-8.8576 77.312-25.6 144.128-47.4112 192.3584a329.3184 329.3184 0 0 0 220.16-192.3584zM460.288 637.6448c11.8272 37.1712 24.0128 60.3136 33.8432 74.0352 5.888 0.512 11.8784 0.512 17.8688 0.512s11.9808 0 17.8688-0.512c9.8304-13.8752 22.016-37.0176 33.8432-74.1888a712.8576 712.8576 0 0 0 26.4704-128.3072H433.8176a712.8576 712.8576 0 0 0 26.4704 128.4608zM428.8512 701.44c-22.016-48.2304-38.7584-115.0464-47.616-192.3584h-172.544a329.3184 329.3184 0 0 0 220.16 192.3584zM191.9488 457.1136h184.6784c-1.536-23.7056-2.3552-48.128-2.3552-73.1136s0.8192-49.408 2.3552-73.1136H191.9488a326.4 326.4 0 0 0 0 146.2272z m16.5376-198.4512h172.7488c8.8576-77.312 25.6-144.128 47.4112-192.3584a329.3184 329.3184 0 0 0-220.16 192.3584z m355.2256-128.3072c-11.8272-37.1712-24.0128-60.3136-33.8432-74.1888-5.888-0.512-11.8784-0.512-17.8688-0.512s-11.9808 0-17.8688 0.512c-9.8304 13.8752-22.016 37.0176-33.8432 74.1888a712.8576 712.8576 0 0 0-26.4704 128.3072h156.3648a712.8576 712.8576 0 0 0-26.4704-128.3072z m-134.7584 180.5312c-1.5872 23.8592-2.4576 48.3328-2.4576 73.1136s0.8704 49.2544 2.4576 73.1136h166.0928c1.5872-23.8592 2.4576-48.3328 2.4576-73.1136s-0.8704-49.2544-2.4576-73.1136z m166.1952-244.5824c22.016 48.2304 38.7584 115.0464 47.616 192.3584h172.544a329.3184 329.3184 0 0 0-220.16-192.3584z m236.9024 244.5824h-184.6784c1.536 23.7056 2.3552 48.128 2.3552 73.1136s-0.8192 49.408-2.3552 73.1136h184.6784a326.4 326.4 0 0 0 0-146.2272z"  horiz-adv-x="1024" />
      
      <glyph glyph-name="remind" unicode="&#58968;" d="M512 808.96a93.696 93.696 0 0 0 94.378667-85.333333 269.994667 269.994667 0 0 0 170.666666-248.661334v-166.4l51.2-116.565333a49.493333 49.493333 0 0 0-3.413333-46.250667A48.298667 48.298667 0 0 0 785.066667 123.050667H238.933333A48.298667 48.298667 0 0 0 198.314667 145.066667a49.152 49.152 0 0 0-3.413334 46.250666l51.2 116.565334V474.453333a267.434667 267.434667 0 0 0 170.666667 248.661334A94.890667 94.890667 0 0 0 512 808.96M512 896a181.589333 181.589333 0 0 1-167.253333-110.762667A355.84 355.84 0 0 1 159.232 474.453333v-147.968l-44.032-99.84a136.533333 136.533333 0 0 1 9.216-127.658666A134.656 134.656 0 0 1 238.933333 35.84h546.133334a134.656 134.656 0 0 1 115.029333 63.146667 137.557333 137.557333 0 0 1 8.704 128.853333l-43.52 98.474667V474.453333A356.864 356.864 0 0 1 680.106667 784.554667 182.442667 182.442667 0 0 1 512 896zM352.085333-46.250667m40.789334 0l238.421333 0q40.789333 0 40.789333-40.789333l0-0.170667q0-40.789333-40.789333-40.789333l-238.421333 0q-40.789333 0-40.789334 40.789333l0 0.170667q0 40.789333 40.789334 40.789333Z"  horiz-adv-x="1024" />
      
      <glyph glyph-name="close" unicode="&#58967;" d="M573.44 384l310.613333 308.906667c17.066667 17.066667 17.066667 44.373333 0 61.44s-44.373333 17.066667-61.44 0L512 445.44 203.093333 754.346667c-17.066667 17.066667-44.373333 17.066667-61.44 0s-17.066667-44.373333 0-61.44L450.56 384 141.653333 75.093333c-17.066667-17.066667-17.066667-44.373333 0-61.44 8.533333-8.533333 20.48-11.946667 30.72-11.946666 11.946667 0 22.186667 3.413333 30.72 11.946666L512 322.56l310.613333-308.906667c8.533333-8.533333 18.773333-11.946667 30.72-11.946666s22.186667 3.413333 30.72 11.946666c17.066667 17.066667 17.066667 44.373333 0 61.44L573.44 384z"  horiz-adv-x="1024" />
      
      <glyph glyph-name="date" unicode="&#58966;" d="M819.2 810.666667h-49.493333V851.626667C769.706667 877.226667 750.933333 896 727.04 896S682.666667 877.226667 682.666667 851.626667V810.666667H341.333333V851.626667C341.333333 877.226667 322.56 896 296.96 896s-44.373333-18.773333-44.373333-44.373333V810.666667H204.8C92.16 810.666667 0 718.506667 0 605.866667v-529.066667c0-112.64 92.16-204.8 204.8-204.8h614.4c112.64 0 204.8 92.16 204.8 204.8V605.866667c0 112.64-92.16 204.8-204.8 204.8z m117.76-733.866667c0-64.853333-52.906667-117.76-117.76-117.76H204.8c-64.853333 0-117.76 52.906667-117.76 117.76V605.866667c0 64.853333 52.906667 117.76 117.76 117.76h49.493333v-39.253334c0-23.893333 18.773333-44.373333 44.373334-44.373333s44.373333 18.773333 44.373333 44.373333v39.253334h341.333333v-39.253334c0-23.893333 18.773333-44.373333 44.373334-44.373333s44.373333 18.773333 44.373333 44.373333v39.253334H819.2c64.853333 0 117.76-52.906667 117.76-117.76v-529.066667zM296.96 428.373333h-81.92c-23.893333 0-44.373333-18.773333-44.373333-44.373333s18.773333-44.373333 44.373333-44.373333h81.92c23.893333 0 44.373333 18.773333 44.373333 44.373333s-20.48 44.373333-44.373333 44.373333zM552.96 428.373333h-81.92c-23.893333 0-44.373333-18.773333-44.373333-44.373333s18.773333-44.373333 44.373333-44.373333h81.92c23.893333 0 44.373333 18.773333 44.373333 44.373333s-20.48 44.373333-44.373333 44.373333zM808.96 428.373333h-81.92c-23.893333 0-44.373333-18.773333-44.373333-44.373333s18.773333-44.373333 44.373333-44.373333h81.92c23.893333 0 44.373333 18.773333 44.373333 44.373333s-20.48 44.373333-44.373333 44.373333zM296.96 254.293333h-81.92c-23.893333 0-44.373333-18.773333-44.373333-44.373333s18.773333-44.373333 44.373333-44.373333h81.92c23.893333 0 44.373333 18.773333 44.373333 44.373333s-20.48 44.373333-44.373333 44.373333zM552.96 254.293333h-81.92c-23.893333 0-44.373333-18.773333-44.373333-44.373333s18.773333-44.373333 44.373333-44.373333h81.92c23.893333 0 44.373333 18.773333 44.373333 44.373333s-20.48 44.373333-44.373333 44.373333zM808.96 254.293333h-81.92c-23.893333 0-44.373333-18.773333-44.373333-44.373333s18.773333-44.373333 44.373333-44.373333h81.92c23.893333 0 44.373333 18.773333 44.373333 44.373333s-20.48 44.373333-44.373333 44.373333z"  horiz-adv-x="1024" />
      
      <glyph glyph-name="sound-off" unicode="&#58965;" d="M484.693333 773.12c-15.36 0-30.72-3.413333-44.373333-13.653333l-242.346667-151.893334H85.333333c-47.786667 0-85.333333-39.253333-85.333333-85.333333v-285.013333c0-46.08 39.253333-85.333333 85.333333-85.333334h124.586667L440.32 8.533333c13.653333-8.533333 30.72-13.653333 44.373333-13.653333 44.373333 0 85.333333 35.84 85.333334 85.333333V687.786667c0 49.493333-40.96 85.333333-85.333334 85.333333z m-1.706666-689.493333L256 226.986667c-13.653333 8.533333-30.72 13.653333-46.08 13.653333H87.04V520.533333h110.933333c17.066667 0 32.426667 5.12 46.08 13.653334l238.933334 150.186666v-600.746666zM914.773333 384l95.573334 93.866667c17.066667 17.066667 17.066667 44.373333 0 61.44s-44.373333 17.066667-61.44 0L853.333333 445.44l-97.28 95.573333c-17.066667 17.066667-44.373333 17.066667-61.44 0s-17.066667-44.373333 0-61.44l95.573334-93.866666-95.573334-93.866667c-17.066667-17.066667-17.066667-44.373333 0-61.44 8.533333-8.533333 20.48-13.653333 30.72-13.653333 10.24 0 22.186667 3.413333 30.72 11.946666l97.28 95.573334 97.28-95.573334c8.533333-8.533333 18.773333-11.946667 30.72-11.946666s22.186667 5.12 30.72 13.653333c17.066667 17.066667 17.066667 44.373333 0 61.44L914.773333 384z"  horiz-adv-x="1024" />
      
      <glyph glyph-name="sound-on" unicode="&#58964;" d="M484.693333 773.12c-15.36 0-30.72-3.413333-44.373333-13.653333l-242.346667-151.893334H85.333333c-47.786667 0-85.333333-39.253333-85.333333-85.333333v-285.013333c0-46.08 39.253333-85.333333 85.333333-85.333334h124.586667L440.32 8.533333c13.653333-8.533333 30.72-13.653333 44.373333-13.653333 44.373333 0 85.333333 35.84 85.333334 85.333333V687.786667c0 49.493333-40.96 85.333333-85.333334 85.333333z m-1.706666-689.493333L256 226.986667c-13.653333 8.533333-30.72 13.653333-46.08 13.653333H87.04V520.533333h110.933333c17.066667 0 32.426667 5.12 46.08 13.653334l238.933334 150.186666v-600.746666zM738.986667 624.64c-17.066667 17.066667-44.373333 18.773333-61.44 1.706667s-18.773333-44.373333-1.706667-61.44c46.08-49.493333 71.68-114.346667 71.68-182.613334 0-66.56-25.6-131.413333-69.973333-180.906666-17.066667-17.066667-15.36-46.08 3.413333-61.44 8.533333-6.826667 18.773333-11.946667 29.013333-11.946667 11.946667 0 23.893333 5.12 32.426667 13.653333C802.133333 208.213333 836.266667 291.84 836.266667 382.293333c-1.706667 90.453333-35.84 177.493333-97.28 242.346667zM861.866667 768c-17.066667 17.066667-44.373333 17.066667-61.44 0s-17.066667-44.373333 0-61.44c87.04-85.333333 134.826667-199.68 134.826666-322.56 0-121.173333-47.786667-235.52-134.826666-320.853333-17.066667-17.066667-17.066667-44.373333 0-61.44 8.533333-8.533333 20.48-13.653333 30.72-13.653334 10.24 0 22.186667 3.413333 30.72 11.946667 104.106667 102.4 160.426667 238.933333 160.426666 384 1.706667 145.066667-56.32 281.6-160.426666 384z"  horiz-adv-x="1024" />
      
      <glyph glyph-name="operation" unicode="&#58963;" d="M191.146667 384m-102.4 0a102.4 102.4 0 1 1 204.8 0 102.4 102.4 0 1 1-204.8 0ZM512 384m-102.4 0a102.4 102.4 0 1 1 204.8 0 102.4 102.4 0 1 1-204.8 0ZM832.853333 384m-102.4 0a102.4 102.4 0 1 1 204.8 0 102.4 102.4 0 1 1-204.8 0Z"  horiz-adv-x="1024" />
      
      <glyph glyph-name="arrow-right" unicode="&#58960;" d="M810.582417 383.855571c0-11.943297-5.118556-23.886593-13.649482-32.417519L286.783549-116.056703c-17.061852-17.061852-46.067001-15.355667-61.422669 3.41237-17.061852 17.061852-15.355667 46.067001 3.41237 61.422669L703.092747 383.855571 227.067065 820.638992c-17.061852 17.061852-18.768038 44.360816-3.41237 61.422669 17.061852 17.061852 44.360816 18.768038 61.422668 3.41237L795.22675 417.979276c10.237111-10.237111 15.355667-22.180408 15.355667-34.123705z"  horiz-adv-x="1024" />
      
      <glyph glyph-name="arrow-left" unicode="&#58962;" d="M213.417583 383.855571c0-11.943297 5.118556-23.886593 13.649482-32.417519l510.149386-467.494755c17.061852-17.061852 46.067001-15.355667 61.422669 3.41237 17.061852 17.061852 15.355667 46.067001-3.41237 61.422669L320.907253 383.855571 796.932935 820.638992c17.061852 17.061852 18.768038 44.360816 3.41237 61.422669-17.061852 17.061852-44.360816 18.768038-61.422668 3.41237l-511.855572-469.20094c-8.530926-8.530926-13.649482-20.474223-13.649482-32.41752z"  horiz-adv-x="1024" />
      
      <glyph glyph-name="arrow-up" unicode="&#58961;" d="M512 682.666667c-11.946667 0-23.893333-5.12-32.426667-13.653334L11.946667 158.72c-17.066667-17.066667-15.36-46.08 3.413333-61.44s46.08-15.36 61.44 3.413333L512 575.146667l436.906667-474.453334c17.066667-17.066667 44.373333-18.773333 61.44-3.413333 17.066667 17.066667 18.773333 44.373333 3.413333 61.44L544.426667 669.013333c-8.533333 8.533333-20.48 13.653333-32.426667 13.653334z"  horiz-adv-x="1024" />
      
      <glyph glyph-name="arrow-down" unicode="&#58958;" d="M512 85.333333c-11.946667 0-23.893333 5.12-32.426667 13.653334L11.946667 609.28c-17.066667 17.066667-15.36 46.08 3.413333 61.44s46.08 15.36 61.44-3.413333L512 192.853333l436.906667 474.453334c17.066667 17.066667 44.373333 18.773333 61.44 3.413333 17.066667-17.066667 18.773333-44.373333 3.413333-61.44L544.426667 98.986667c-8.533333-8.533333-20.48-13.653333-32.426667-13.653334z"  horiz-adv-x="1024" />
      
      <glyph glyph-name="search" unicode="&#58957;" d="M1012.053333-52.906667l-151.893333 151.893334c69.973333 83.626667 112.64 192.853333 112.64 310.613333C971.093333 679.253333 754.346667 896 486.4 896S0 679.253333 0 409.6C0 141.653333 216.746667-76.8 486.4-76.8c117.76 0 226.986667 42.666667 310.613333 112.64l151.893334-151.893333c8.533333-8.533333 20.48-11.946667 30.72-11.946667s22.186667 3.413333 30.72 11.946667c17.066667 17.066667 17.066667 46.08 1.706666 63.146666zM87.04 409.6c0 220.16 179.2 399.36 399.36 399.36 220.16 0 399.36-179.2 399.36-399.36 0-220.16-179.2-399.36-399.36-399.36-220.16 1.706667-399.36 179.2-399.36 399.36z"  horiz-adv-x="1024" />
      
      <glyph glyph-name="jump-arrow" unicode="&#58955;" d="M864.426667 398.165333l-286.72 286.72A20.309333 20.309333 0 0 1 548.864 657.066667l252.245333-252.757334H173.909333a20.309333 20.309333 0 1 1 0-40.618666H802.133333L549.034667 110.933333a20.309333 20.309333 0 0 1 28.672-28.672l286.72 286.72a20.138667 20.138667 0 0 1 0 29.184z"  horiz-adv-x="1024" />
      
      <glyph glyph-name="eth" unicode="&#58954;" d="M512 517.632l-314.368-142.848 314.368-185.856 314.368 185.856L512 517.632zM197.632 374.272l314.368-185.856V896L197.632 374.272zM512 896v-707.072l314.368 185.856L512 896zM197.632 314.88L512-128v257.024l-314.368 185.856zM512 129.024V-128l314.368 442.88-314.368-185.856z"  horiz-adv-x="1024" />
      
      <glyph glyph-name="website" unicode="&#58953;" d="M380.416 465.92c-97.792-14.848-164.864-46.08-164.864-81.92s67.072-67.072 164.864-81.92c-2.048 26.624-3.584 53.76-3.584 81.92s1.536 55.296 3.584 81.92zM593.92 515.584c-14.848 97.792-46.08 164.864-81.92 164.864S444.928 612.864 430.08 515.584c26.624 2.048 53.76 3.584 81.92 3.584 28.16-0.512 55.296-1.536 81.92-3.584zM424.96 471.04c-2.56-27.648-4.096-56.832-4.096-87.04s1.536-59.392 4.096-87.04c27.648-2.56 56.832-4.096 87.04-4.096s59.392 1.536 87.04 4.096c2.56 27.648 4.096 56.832 4.096 87.04s-1.536 59.392-4.096 87.04c-27.648 2.56-56.832 4.096-87.04 4.096s-59.392-1.536-87.04-4.096zM430.08 252.416c14.848-97.792 46.08-164.864 81.92-164.864s67.072 67.072 81.92 164.864c-26.624-2.048-53.76-3.584-81.92-3.584-28.16 0.512-55.296 1.536-81.92 3.584zM512 896C229.376 896 0 666.624 0 384s229.376-512 512-512 512 229.376 512 512S794.624 896 512 896z m222.208-617.984c-28.16-8.704-60.928-15.36-95.744-20.48-4.608-35.328-11.776-67.584-20.48-95.744-29.696-97.28-74.24-117.248-105.984-117.248-31.744 0-76.288 20.48-105.984 117.248-8.704 28.16-15.36 60.928-20.48 95.744-35.328 4.608-67.584 11.776-95.744 20.48-97.28 29.696-117.248 74.24-117.248 105.984s20.48 76.288 117.248 105.984c28.16 8.704 60.928 15.36 95.744 20.48 4.608 35.328 11.776 67.584 20.48 95.744 29.696 97.28 74.24 117.248 105.984 117.248 31.744 0 76.288-20.48 105.984-117.248 8.704-28.16 15.36-60.928 20.48-95.744 35.328-4.608 67.584-11.776 95.744-20.48 97.28-29.696 117.248-74.24 117.248-105.984s-19.968-76.288-117.248-105.984zM643.584 465.92c2.048-26.624 3.584-53.76 3.584-81.92s-1.024-55.296-3.584-81.92c97.792 14.848 164.864 46.08 164.864 81.92s-67.584 67.072-164.864 81.92z"  horiz-adv-x="1024" />
      
      <glyph glyph-name="opensea" unicode="&#58952;" d="M512 896a512 512 0 1 1 512-512A512 512 0 0 1 512 896zM252.6208 366.7968l2.2016 3.4816L387.9936 578.56a4.5568 4.5568 0 0 0 7.9872-0.5632c22.272-49.8688 41.472-111.872 32.4608-150.4768a234.4448 234.4448 0 0 0-26.1632-57.2928c-1.536-2.9184-3.2256-5.7344-5.12-8.4992a4.5568 4.5568 0 0 0-3.7888-1.9968H256.512a4.5568 4.5568 0 0 0-3.8912 7.0656z m593.92-71.68a5.12 5.12 0 0 0-2.8672-4.352c-10.24-4.4032-45.568-20.48-60.2624-40.96-37.4784-52.1216-66.048-126.6688-130.048-126.6688H386.2528A171.52 171.52 0 0 0 215.04 294.912v3.0208a4.5568 4.5568 0 0 0 4.5568 4.5568H368.64a5.12 5.12 0 0 0 4.8128-5.5808 51.2 51.2 0 0 1 5.12-28.5696 52.3264 52.3264 0 0 1 46.9504-29.184h73.5744v57.4976H426.2912a4.7104 4.7104 0 0 0-3.7888 7.3728l2.6112 3.8912c6.912 9.7792 16.7424 24.9856 26.5216 42.2912a331.1616 331.1616 0 0 1 18.3808 36.6592c1.024 2.304 1.8944 4.608 2.7136 6.8608 1.4336 3.9936 2.9184 7.7312 3.9424 11.4688s1.8944 6.4512 2.7648 9.5744a148.992 148.992 0 0 1 3.5328 33.536c0 4.608 0 9.3696-0.6656 13.9776s-0.8192 9.984-1.4848 15.0016-1.1776 8.7552-2.048 13.312c-1.024 6.7072-2.5088 13.312-4.1984 20.0192l-0.5632 2.5088c-1.28 4.608-2.304 8.96-3.7888 13.5168-4.3008 14.3872-8.96 28.3648-13.9776 41.6768-1.8432 5.12-3.9424 10.24-6.0416 15.36-3.1232 7.5264-6.2976 14.336-9.1648 20.8384-1.4848 2.9184-2.7648 5.632-3.9936 8.3456s-2.9184 6.1952-4.4032 9.1648-2.2528 4.352-3.072 6.4512L420.5568 645.12a2.9184 2.9184 0 0 0 3.328 4.2496l56.32-15.36h0.3584l7.424-2.048 8.1408-2.304 3.0208-0.8704v33.1776a29.0816 29.0816 0 0 0 28.8768 29.2352 28.7744 28.7744 0 0 0 20.48-8.5504 29.5936 29.5936 0 0 0 8.448-20.48v-49.664l5.9904-1.6896a4.3008 4.3008 0 0 0 1.3824-0.6656l6.2464-4.7616c2.0992-1.6896 4.4032-3.7376 7.1168-5.8368 5.4272-4.352 11.8784-10.24 18.9952-16.4352 1.8944-1.6384 3.7376-3.328 5.4272-5.12 9.1136-8.4992 19.4048-18.5344 29.184-29.5424 2.7136-3.1232 5.4272-6.2976 8.1408-9.5744s5.632-6.7072 8.1408-10.24c3.328-4.4032 6.912-8.96 10.24-13.7728 1.4336-2.2528 3.1232-4.5568 4.5568-6.8096 3.9936-6.0928 7.5264-12.3392 10.9056-18.5856 1.3824-2.9184 2.8672-6.0416 4.1472-9.1648a133.5808 133.5808 0 0 0 8.5504-25.6 28.5184 28.5184 0 0 0 1.2288-5.632v-0.4096a50.176 50.176 0 0 0 1.024-7.936 84.1216 84.1216 0 0 0-1.6384-26.0096 98.5088 98.5088 0 0 0-3.1232-11.008c-1.28-3.584-2.5088-7.3216-4.1472-10.8032a151.3984 151.3984 0 0 0-11.3152-21.504c-1.4336-2.5088-3.1232-5.12-4.7616-7.7312s-3.7376-5.12-5.4272-7.68-4.8128-6.4512-7.3216-9.4208a93.5424 93.5424 0 0 0-7.1168-8.9088c-3.5328-4.1472-6.8608-8.0896-10.24-11.8784-2.0992-2.5088-4.4032-5.12-6.7072-7.2704s-4.5568-4.8128-6.656-6.912c-3.5328-3.5328-6.5024-6.2464-8.96-8.4992l-5.7856-5.12a4.7616 4.7616 0 0 0-3.072-1.1776h-44.8512v-57.4976h56.32a52.7872 52.7872 0 0 1 34.2528 12.6976 410.9824 410.9824 0 0 1 34.9184 34.304 4.3008 4.3008 0 0 0 2.1504 1.3312l155.7504 45.0048a4.608 4.608 0 0 0 5.8368-4.4032z"  horiz-adv-x="1024" />
      
      <glyph glyph-name="discord" unicode="&#58951;" d="M395.264 428.032c-35.328 0-62.976-31.744-62.976-70.656S360.96 286.72 395.264 286.72c35.328 0 62.976 31.744 62.976 70.656 1.024 38.912-27.648 70.656-62.976 70.656zM629.248 428.032c-35.328 0-62.976-31.744-62.976-70.656s28.672-70.656 62.976-70.656c35.328 0 62.976 31.744 62.976 70.656 0.512 38.912-27.648 70.656-62.976 70.656zM983.552 582.656c-27.136 63.488-63.488 117.76-109.056 163.328-45.568 45.568-100.352 81.92-163.328 109.056-63.488 27.648-130.048 40.96-199.168 40.96S376.32 882.688 313.344 855.552c-63.488-27.136-117.76-63.488-163.328-109.056-45.568-45.568-81.92-100.352-109.056-163.328C13.312 519.68 0 453.12 0 384s13.312-135.68 40.448-198.656c27.136-63.488 63.488-117.76 109.056-163.328 45.568-45.568 100.352-81.92 163.328-109.056 63.488-27.136 129.536-40.448 198.656-40.448 69.12 0 135.68 13.312 198.656 40.448 63.488 27.136 117.76 63.488 163.328 109.056s81.92 100.352 109.056 163.328c27.136 63.488 40.448 129.536 40.448 198.656s-12.288 135.68-39.424 198.656z m-122.88-376.32c0-0.512-0.512-1.024-1.024-1.536-53.248-39.424-112.64-69.632-176.128-88.576-1.024-0.512-2.048 0-2.56 1.024-13.312 18.432-25.6 37.888-35.84 58.368-0.512 1.024 0 2.56 1.536 3.072 18.944 7.168 37.376 15.872 54.784 26.112l0.512 0.512c0.512 1.024 0.512 2.56-0.512 3.072-3.584 2.56-7.168 5.632-10.752 8.704-0.512 0.512-1.536 0.512-2.048 0.512-113.664-52.736-238.592-52.736-353.792 0-0.512 0.512-1.536 0-2.048-0.512-3.584-3.072-7.168-5.632-10.752-8.704l-0.512-0.512c-0.512-1.024-0.512-2.56 1.024-3.072 17.408-10.24 35.84-18.944 54.784-26.112 1.024-0.512 1.536-2.048 1.024-3.072-10.24-20.48-22.528-39.936-35.84-58.368-0.512-0.512-1.536-1.024-2.56-1.024-63.488 19.456-122.88 49.152-176.128 88.576-0.512 0.512-1.024 1.024-1.024 1.536-12.288 131.072 12.8 264.192 103.936 400.384 0 0.512 0.512 0.512 1.024 1.024 45.568 20.992 93.696 35.84 143.36 44.544 1.024 0 2.048-0.512 2.048-1.024 6.656-11.776 12.8-24.064 17.92-36.864 53.248 8.192 107.52 8.192 160.768 0 5.12 12.288 11.264 24.576 17.92 36.864 0.512 1.024 1.536 1.024 2.048 1.024 49.664-8.704 97.792-23.552 143.36-44.544 0.512 0 0.512-0.512 1.024-1.024 79.872-116.736 119.296-248.32 104.448-400.384z"  horiz-adv-x="1024" />
      
      <glyph glyph-name="youtube" unicode="&#58950;" d="M1002.496 630.784c-11.776 44.032-46.592 78.848-90.624 90.624-79.872 21.504-399.872 21.504-399.872 21.504s-320 0-399.872-21.504c-44.032-11.776-78.848-46.592-90.624-90.624C0 550.912 0 384 0 384s0-166.912 21.504-246.784c11.776-44.032 46.592-78.848 90.624-90.624 79.872-21.504 399.872-21.504 399.872-21.504s320 0 399.872 21.504c44.032 11.776 78.848 46.592 90.624 90.624C1024 217.088 1024 384 1024 384s0 166.912-21.504 246.784zM410.112 230.912V537.088l265.216-152.064-265.216-154.112z"  horiz-adv-x="1024" />
      
      <glyph glyph-name="instagram" unicode="&#58949;" d="M512.000001 554.48918c-94.204232 0-170.48918-76.796928-170.489181-170.48918s76.796928-170.48918 170.489181-170.48918 170.48918 76.796928 170.48918 170.48918-76.796928 170.48918-170.48918 170.48918zM1023.979522 384c0 70.653174 0.51198 140.794368-3.583857 211.447542-4.095836 81.916723-22.527099 154.617815-82.428703 214.519419C878.065358 869.868565 805.364266 888.811808 723.447543 892.395664 652.794369 896.4915 582.653175 895.979521 512.000001 895.979521 441.346827 895.979521 371.205633 896.4915 300.552459 892.395664c-81.916723-4.095836-154.617815-22.527099-214.51942-82.428703C26.131436 750.065357 7.188193 677.364265 3.604337 595.447542-0.4915 524.794368 0.02048 454.653174 0.02048 384s-0.51198-140.794368 3.583857-211.447542c4.095836-81.916723 22.527099-154.617815 82.428702-214.519419 59.901604-59.901604 132.602696-78.844846 214.51942-82.428703 70.653174-4.095836 140.794368-3.583857 211.447542-3.583857 70.653174 0 140.794368-0.51198 211.447542 3.583857 81.916723 4.095836 154.617815 22.527099 214.519419 82.428703 59.901604 59.901604 78.844846 132.602696 82.428703 214.519419 4.095836 70.653174 3.583857 140.794368 3.583857 211.447542z m-511.979521-262.645494c-145.402184 0-262.645494 117.24331-262.645494 262.645494S366.597817 646.645494 512.000001 646.645494s262.645494-117.24331 262.645494-262.645494-117.24331-262.645494-262.645494-262.645494z m273.397064 474.605016c-33.790648 0-61.437542 27.646894-61.437543 61.437542s27.646894 61.437542 61.437543 61.437543 61.437542-27.646894 61.437542-61.437543c-0.51198-33.790648-27.646894-61.437542-61.437542-61.437542z"  horiz-adv-x="1024" />
      
      <glyph glyph-name="medium" unicode="&#58948;" d="M512 896C229.376 896 0 666.624 0 384s229.376-512 512-512 512 229.376 512 512S794.624 896 512 896z m292.352-289.792l-46.592-44.544c-4.096-3.072-6.144-8.192-5.12-12.8V220.16c-1.024-5.12 1.024-10.24 5.12-12.8l45.568-44.544v-9.728h-229.376v9.728l47.104 46.08c4.608 4.608 4.608 6.144 4.608 12.8V486.4l-131.584-333.312H476.16L324.096 486.4v-223.232c-1.536-9.216 2.048-18.944 8.704-25.6l61.44-74.24v-9.728H219.648v9.728l61.44 74.24c6.656 6.656 9.728 16.384 8.192 25.6V521.216c1.024 7.168-2.048 14.336-7.68 18.944L226.816 606.208v9.728h169.472l131.072-287.232 115.2 287.232h161.792v-9.728z"  horiz-adv-x="1024" />
      
      <glyph glyph-name="telegram" unicode="&#58947;" d="M983.552 582.656c-27.136 63.488-63.488 117.76-109.056 163.328-45.568 45.568-100.352 81.92-163.328 109.056-63.488 27.648-130.048 40.96-199.168 40.96S376.32 882.688 313.344 855.552c-63.488-27.136-117.76-63.488-163.328-109.056-45.568-45.568-81.92-100.352-109.056-163.328C13.312 519.68 0 453.12 0 384s13.312-135.68 40.448-198.656c27.136-63.488 63.488-117.76 109.056-163.328 45.568-45.568 100.352-81.92 163.328-109.056 63.488-27.136 129.536-40.448 198.656-40.448s135.68 13.312 198.656 40.448c63.488 27.136 117.76 63.488 163.328 109.056s81.92 100.352 109.056 163.328c27.136 63.488 40.448 129.536 40.448 198.656s-12.288 135.68-39.424 198.656z m-220.16-37.376l-83.968-395.776c-6.656-28.16-22.016-35.328-46.08-21.504l-128 94.208-61.952-59.392c-8.192-8.192-16.896-12.8-25.6-12.8l9.216 130.048 237.056 214.528c4.096 3.584 5.12 6.656 2.048 8.704-4.096 3.072-10.24 2.048-18.432-3.584l-293.376-184.32-126.464 39.424c-9.216 2.56-15.36 6.144-18.432 11.264-3.072 4.608-2.56 9.728 1.536 15.36 4.096 5.12 11.776 10.24 22.528 14.336L727.04 586.24c12.288 4.608 22.016 3.072 29.184-4.096 8.704-8.192 10.752-20.48 7.168-36.864z"  horiz-adv-x="1024" />
      
      <glyph glyph-name="twitter" unicode="&#58946;" d="M512 896C229.21216 896 0 666.78784 0 384s229.21216-512 512-512 512 229.21216 512 512S794.78784 896 512 896z m260.99712-378.14272c0.28672-5.77536 0.4096-11.59168 0.4096-17.408 0-177.9712-135.49568-383.22176-383.22176-383.22176-76.06272 0-146.8416 22.3232-206.47936 60.53888 10.52672-1.26976 21.2992-1.92512 32.1536-1.92512 63.0784 0 121.15968 21.54496 167.28064 57.67168-58.94144 1.10592-108.66688 40.05888-125.78816 93.51168 8.23296-1.55648 16.67072-2.37568 25.35424-2.37568 12.288 0 24.1664 1.6384 35.47136 4.7104-61.6448 12.41088-108.05248 66.80576-108.05248 132.096v1.72032c18.71872-10.40384 39.60832-16.1792 61.0304-16.83456-36.12672 24.1664-59.92448 65.37216-59.92448 112.10752 0 24.69888 6.63552 47.84128 18.2272 67.70688 66.43712-81.46944 165.6832-135.08608 277.62688-140.73856-2.29376 9.87136-3.4816 20.15232-3.4816 30.72 0 74.42432 60.29312 134.67648 134.67648 134.67648 38.74816 0 73.76896-16.34304 98.304-42.51648 30.18752 5.9392 59.10528 16.9984 85.56544 32.68608-10.07616-31.41632-31.37536-57.83552-59.22816-74.50624 27.27936 3.23584 53.20704 10.48576 77.37344 21.21728-18.10432-27.11552-40.91904-50.74944-67.29728-69.8368z"  horiz-adv-x="1024" />
      
      <glyph glyph-name="metamask" unicode="&#58943;" d="M328.149333-42.666667l148.892445-39.623111v51.811556l12.16 12.188444h85.077333v-103.608889h-91.164444l-112.426667 48.753778L328.177778-42.666667zM814.321778-42.666667l-145.848889-39.623111v51.811556l-12.16 12.188444h-85.077333v-103.608889h91.164444l112.412444 48.753778L814.321778-42.666667zM489.201778 70.101333l-12.16-100.579555 15.189333 12.188444h158.008889l18.232889-12.188444-12.16 100.579555L632.007111 85.333333l-121.543111-3.043555-21.262222-12.188445zM407.153778 749.710222l72.931555-170.666666 33.422223-496.753778h118.499555l36.465778 496.753778 66.844444 170.666666H407.153778zM88.120889 374.855111L3.043556 128l212.693333 12.188444h136.732444v106.666667l-6.087111 219.434667-30.378666-24.391111-227.882667-67.043556zM249.159111 347.434667L498.318222 341.333333l-27.349333-128-118.499556 30.478223-103.310222 103.623111zM249.159111 344.376889l103.310222-97.521778V149.333333l-103.310222 195.043556zM352.469333 243.811556L473.998222 213.333333l39.509334-131.043555-27.349334-15.246222-133.688889 79.246222v97.521778zM352.469333 146.289778L328.149333-42.666667l161.052445 112.768-136.732445 76.188445zM498.318222 341.333333l15.189334-259.043555-45.582223 132.565333L498.318222 341.333333zM212.693333 143.232l139.776 3.057778L328.149333-42.666667l-115.456 185.898667zM69.888-124.956444L328.163556-42.666667l-115.470223 185.898667L3.043556 128l66.844444-252.956444zM480.085333 579.043556L349.425778 469.333333l-100.266667-121.898666 249.159111-9.144889-18.232889 240.753778zM328.149333-42.666667l161.052445 112.768-12.16-97.536v-54.855111l-109.383111 21.333334L328.163556-42.666667zM814.321778-42.666667l-158.008889 112.768 12.16-97.536v-54.855111l109.368889 21.333334L814.336-42.666667zM431.459556 286.478222l33.422222-70.101333-118.485334 30.478222 85.063112 39.623111zM66.844444 892.956444l413.240889-313.912888-69.888 170.666666L66.844444 892.956444zM66.844444 892.956444L12.145778 725.333333l30.392889-182.855111-21.276445-12.188444 30.392889-27.434667-24.32-21.333333 33.422222-30.478222-21.262222-18.275556 48.625778-60.956444 227.882667 70.087111s167.111111 134.101333 164.081777 137.144889C477.041778 582.115556 66.844444 892.956444 66.844444 892.956444zM1054.350222 374.855111L1139.441778 128l-212.707556 12.188444h-136.732444v106.666667l6.087111 219.434667 30.378667-24.391111 227.882666-67.043556zM893.312 347.434667L644.152889 341.333333l27.349333-128 118.499556 30.478223 103.310222 103.623111zM893.312 344.376889l-103.310222-97.521778V149.333333l103.310222 195.043556zM790.001778 243.811556L668.472889 213.333333l-39.509333-131.043555 27.349333-15.246222 133.688889 79.246222v97.521778zM790.001778 146.289778L814.321778-42.666667l-158.008889 109.710223 133.688889 79.246222zM644.152889 341.333333l-15.189333-259.043555 45.582222 132.565333L644.152889 341.333333zM929.777778 143.232l-139.776 3.057778L814.321778-42.666667l115.456 185.898667zM1072.583111-124.956444L814.307556-42.666667l115.470222 185.898667L1139.441778 128l-66.844445-252.956444zM662.385778 579.043556L793.045333 469.333333l100.266667-121.898666-249.159111-9.144889 18.232889 240.753778zM710.997333 286.478222l-33.422222-70.101333 118.513778 30.478222-85.091556 39.623111zM1075.626667 892.956444L662.385778 579.043556l69.888 170.666666L1075.626667 892.956444zM1075.626667 892.956444L1130.325333 725.333333l-30.392889-182.855111 21.276445-12.188444-30.392889-27.434667 24.32-21.333333-33.422222-30.478222 21.262222-18.275556-48.611556-60.956444L826.453333 441.884444s-167.111111 134.101333-164.081777 137.144889C665.429333 582.115556 1075.626667 892.956444 1075.626667 892.956444z"  horiz-adv-x="1152" />
      
      <glyph glyph-name="null" unicode="&#58942;" d="M684.809329-123.725072l-122.912741 70.656017 0.239396 132.368883 122.912741-70.638917-0.239396-132.385983zM685.048725 8.660911l-122.912741 70.638917 122.912741 72.622483 119.236303-70.656016-119.236303-72.605384zM684.809329-123.725072l0.239396 132.385983 119.236303 72.605384-0.256496-132.385983-119.219203-72.605384zM691.495317 81.950283l-129.068638 74.999344-0.530091 137.92629 129.068638-74.999344 0.530091-137.92629zM827.882633 625.926371l-129.068638 74.999344L814.561956 767.751396l129.068638-74.999344-115.747961-66.825681zM747.189084 338.85638l-129.068638 74.999344 80.693549 287.069991 129.068638-74.999344-80.693549-287.069991zM546.575245 463.513292l-129.068638 74.999344 120.894975 69.80103 129.068638-74.999343-120.894975-69.801031zM690.965226 219.876573l-129.068638 74.999344-144.389981 243.636719 129.068638-74.999344 144.389981-243.636719zM827.882633 625.926371l115.747961 66.825681-139.72176-409.025149 0.530091-136.575412-112.943608-65.201208-0.530091 137.92629-144.389981 243.636719 120.894975 69.801031 79.718864-194.457943 80.693549 287.069991zM691.34142 81.950283l-0.290695 68.963145-0.222297 68.963145v-0.153897l-72.297589 121.835459-72.058193 121.955157L619.009631 341.83173l72.331789-121.80126a0.495892 0.495892 0 0 0 0-0.153897v-68.963145zM561.896588 294.875917l129.410632-75.204541-0.256495-0.410393-129.154137 75.614934zM1092.671697 17.843457q-30.095496 13.850768-64.978911 32.609154c-120.074189 64.739516-267.730215 165.713324-415.762436 284.351137s-278.725331 240.729768-368.105534 343.806841c-43.535871 50.221859-74.879646 93.227638-93.193439 127.820359C131.257401 842.990136 127.341567 869.0159 139.020671 883.584856c22.725519 28.368425 96.767279 2.804353 154.889206-23.614705l-2.137464-4.668222C212.036448 891.587522 159.147034 900.496472 143.022004 880.370109c-20.519656-25.64957 17.595605-97.947159 104.667347-198.356677C336.864357 579.107356 467.318072 457.237697 615.127996 338.805081s295.175256-219.235428 414.992949-283.855245C1147.117185-8.113908 1226.049463-29.591148 1246.569119-3.941578c17.099714 21.272044-6.207196 74.896745-65.509002 150.956271l4.052632 3.146348c43.074178-55.266274 89.414402-127.427066 65.457703-157.317365-11.662005-14.568956-37.858766-16.398625-77.820796-5.471909-22.811018 6.241395-49.623369 16.432825-80.077959 30.47169zM324.432866 363.753563c-55.317573 25.427274-105.864327 50.957146-150.118386 75.956928-57.865431 32.677553-101.845894 62.653351-130.71021 89.089507C13.047081 556.792229 0.632689 579.928142 6.737287 597.557947c11.9698 34.370424 90.200989 35.174111 153.897422 29.8048l-0.427493-5.129914c-87.362437 7.369977-140.115053-1.983567-148.528112-26.367758-10.824119-31.03598 49.401073-86.319354 165.149034-151.674459 118.518115-66.928279 282.36757-137.874991 461.384472-199.775954s351.672709-107.317802 486.230355-127.888758c131.394199-20.109263 212.908534-13.833668 223.647154 17.219412 8.908951 25.786368-31.01888 68.398854-112.413517 120.176787l2.735954 4.326227c59.165009-37.61937 127.050872-89.978693 114.568081-126.178786-6.087498-17.629805-30.129695-28.163228-71.459703-31.309576-39.021546-2.95825-92.133257 0.632689-157.813257 10.687321-134.848341 20.622255-307.794844 66.124592-487.11954 128.128154-112.533215 38.884749-219.064431 81.360437-312.155271 124.17812zM1169.311265 654.700775m-4.789195-29.504128a29.890299 29.890299 0 1 1 9.578391 59.008257 29.890299 29.890299 0 1 1-9.578391-59.008257ZM102.564082 129.179692m-29.890299 0a29.890299 29.890299 0 1 1 59.780598 0 29.890299 29.890299 0 1 1-59.780598 0Z"  horiz-adv-x="1354" />
      
    </font>
</defs>
</svg>
