<svg id="v" xmlns="http://www.w3.org/2000/svg" xmlns:xlink="http://www.w3.org/1999/xlink" width="263.68" height="70.44" viewBox="0 0 263.68 70.44">
  <defs>
    <style>
      .cls-1 {
        fill: url(#name);
      }

      .cls-2 {
        fill: #9a89e8;
      }

      .cls-3 {
        fill: #cfcaff;
      }

      .cls-4 {
        fill: #fff;
      }

      .cls-5 {
        fill: #c7c7ff;
      }

      .cls-6 {
        fill: url(#name-2);
      }
    </style>
    <linearGradient id="name" data-name="未命名的渐变 11" x1="648.34" y1="-231.79" x2="648.34" y2="-168.11" gradientTransform="translate(378.06 -51.12) rotate(90)" gradientUnits="userSpaceOnUse">
      <stop offset="0" stop-color="#a86bfe"/>
      <stop offset="1" stop-color="#725dff"/>
    </linearGradient>
    <linearGradient id="name-2" x1="719.99" y1="584.78" x2="719.99" y2="610.88" gradientTransform="matrix(1, 0, 0, 1, 0, 0)" xlink:href="#name"/>
  </defs>
  <g>
    <path class="cls-1" d="M609.85,609.83V584.61a10,10,0,0,0-5-8.66L583,563.34a10,10,0,0,0-10,0L551.17,576a10,10,0,0,0-5,8.66v25.22a10,10,0,0,0,5,8.66L573,631.1a10,10,0,0,0,10,0l21.84-12.61A10,10,0,0,0,609.85,609.83Z" transform="translate(-546.17 -562)"/>
    <g>
      <g>
        <polygon class="cls-2" points="32.07 59.46 25.39 55.62 25.4 48.42 32.08 52.26 32.07 59.46"/>
        <polygon class="cls-3" points="32.08 52.26 25.4 48.42 32.08 44.47 38.57 48.31 32.08 52.26"/>
        <polygon class="cls-4" points="32.07 59.46 32.08 52.26 38.57 48.31 38.55 55.51 32.07 59.46"/>
      </g>
      <polygon class="cls-2" points="32.43 48.27 25.41 44.2 25.39 36.69 32.41 40.77 32.43 48.27"/>
      <polygon class="cls-3" points="39.85 18.69 32.83 14.61 39.13 10.98 46.15 15.05 39.85 18.69"/>
      <polygon class="cls-2" points="35.46 34.3 28.44 30.22 32.83 14.61 39.85 18.69 35.46 34.3"/>
      <polygon class="cls-3" points="24.55 27.52 17.53 23.44 24.11 19.65 31.13 23.73 24.55 27.52"/>
      <polygon class="cls-2" points="32.41 40.77 25.39 36.69 17.53 23.44 24.55 27.52 32.41 40.77"/>
      <polygon class="cls-4" points="39.85 18.69 46.15 15.05 38.55 37.3 38.58 44.73 32.43 48.27 32.41 40.77 24.55 27.52 31.13 23.73 35.46 34.3 39.85 18.69"/>
      <path class="cls-5" d="M578.59,610.27q-.17-3.75-.2-7.5l0,.1c-1.33-2.19-2.63-4.41-3.92-6.63s-2.55-4.46-3.78-6.72q2.1,3.24,4.09,6.53c1.33,2.2,2.65,4.4,3.94,6.63a.16.16,0,0,1,0,.09C578.77,605.27,578.7,607.77,578.59,610.27Z" transform="translate(-546.17 -562)"/>
      <polygon class="cls-5" points="25.39 36.69 32.49 40.67 32.34 40.92 25.39 36.69"/>
    </g>
  </g>
  <g>
    <path d="M634.48,584.78l15,18.76V584.78h4.64v26.1h-4.64l-14.91-18.71v18.71h-4.71v-26.1Z" transform="translate(-546.17 -562)"/>
    <path d="M676.89,584.78l0,4h-14v7.53h12.71v3.91H662.82v10.7H658.1v-26.1Z" transform="translate(-546.17 -562)"/>
    <path d="M703.3,584.78v4h-8.87v22.14h-4.72V588.74h-8.83v-4Z" transform="translate(-546.17 -562)"/>
    <path class="cls-6" d="M722.41,602.2v8.68h-4.68v-8.54L707.3,584.78h4.75l8,12.72,7.83-12.72h4.8Z" transform="translate(-546.17 -562)"/>
    <path d="M753.35,602.61H737.29a6.38,6.38,0,0,0,6.59,4.95,8.59,8.59,0,0,0,6-2.31l2.43,2.43a12,12,0,0,1-8.79,3.35c-6.55,0-10.87-4.06-10.87-10s4.44-10.06,10.75-10.1C750.88,590.9,753.91,595.45,753.35,602.61Zm-4-3.14c-.16-3.2-2.44-5.14-5.92-5.14a5.89,5.89,0,0,0-6.23,5.14Z" transform="translate(-546.17 -562)"/>
    <path d="M771.92,610.88v-2.42c-1.52,1.75-3.95,2.61-7,2.61-4.6,0-7.48-2.65-7.48-6.15s2.92-5.93,8-6h6.43v-.59c0-2.5-1.72-4-5.07-4a11.78,11.78,0,0,0-6.28,2l-1.88-3a16.41,16.41,0,0,1,9.16-2.5c5.47,0,8.55,2.61,8.59,7l0,13Zm0-7v-1.83h-5.75c-3,0-4.4.75-4.4,2.65s1.56,2.95,4.12,2.95C769.12,607.68,771.64,606.07,771.88,603.91Z" transform="translate(-546.17 -562)"/>
    <path d="M800.82,598.54v12.34h-4.6V599.73c0-3-1.92-4.8-5.12-4.8a5.83,5.83,0,0,0-6.07,6.18v9.77h-4.59V583.22H785v11.71c1.52-2.8,4.24-4,7.87-4C797.86,590.9,800.82,593.81,800.82,598.54Z" transform="translate(-546.17 -562)"/>
    <path d="M809.85,608.72a2.52,2.52,0,0,1-5,0,2.52,2.52,0,0,1,5,0Zm-.32-23.64-.76,17.49h-2.88l-.76-17.49Z" transform="translate(-546.17 -562)"/>
  </g>
</svg>
