<?xml version="1.0" encoding="utf-8"?>
<!-- Generator: Adobe Illustrator 24.2.0, SVG Export Plug-In . SVG Version: 6.00 Build 0)  -->
<svg version="1.1" id="view" xmlns="http://www.w3.org/2000/svg" xmlns:xlink="http://www.w3.org/1999/xlink" x="0px" y="0px"
	 viewBox="0 0 1354.5 1024" style="enable-background:new 0 0 1354.5 1024;" xml:space="preserve">
<style type="text/css">
	.st0{fill:#9A89E8;}
	.st1{fill:#CFCAFF;}
	.st2{fill:#FFFFFF;}
	.st3{fill:#C7C7FF;}
	.st4{opacity:0.5;fill:#CFCAFF;enable-background:new    ;}
</style>
<g>
	<g>
		<polygon class="st0" points="683.7,1021.5 560.6,950.7 560.8,818.1 684,888.9 		"/>
		<polygon class="st1" points="684,888.9 560.8,818.1 684,745.4 803.4,816.2 		"/>
		<polygon class="st2" points="683.7,1021.5 684,888.9 803.4,816.2 803.2,948.8 		"/>
	</g>
	<polygon class="st0" points="690.4,815.5 561.1,740.3 560.6,602.2 689.9,677.3 	"/>
	<polygon class="st1" points="827,270.5 697.8,195.4 813.7,128.5 943,203.6 	"/>
	<polygon class="st0" points="746.2,558.1 616.9,483 697.8,195.4 827,270.5 	"/>
	<polygon class="st1" points="545.3,433.2 416,358.1 537.1,288.2 666.4,363.3 	"/>
	<polygon class="st0" points="689.9,677.3 560.6,602.2 416,358.1 545.3,433.2 	"/>
	<polygon class="st2" points="827,270.5 943,203.6 803,613.3 803.6,750.2 690.4,815.5 689.9,677.3 545.3,433.2 666.4,363.3 
		746.2,558.1 	"/>
	<path class="st3" d="M690.3,815.5l-0.3-69.1l-0.2-69.1v0.2l-72.4-122l-72.2-122.2l72.7,121.9l72.5,122c0,0.1,0,0.1,0,0.2v69.1
		V815.5z"/>
	<polygon class="st3" points="560.6,602.2 690.2,677.5 690,677.9 	"/>
</g>
<path class="st1" d="M1092.3,879.7c-20.1-9.2-41.8-20.1-65.1-32.7C906.9,782.2,759,681,610.7,562.2S331.5,321,242,217.8
	c-43.6-50.3-75-93.4-93.4-128C129.2,53.1,125.3,27,137,12.4c22.8-28.4,96.9-2.8,155.2,23.7l-2.1,4.7C210.1,4.4,157.2-4.5,141,15.7
	c-20.6,25.7,17.6,98.1,104.8,198.7c89.3,103.1,220,225.2,368.1,343.8s295.7,219.6,415.7,284.3c117.2,63.2,196.3,84.7,216.8,59
	c17.1-21.3-6.2-75-65.6-151.2l4.1-3.2c43.1,55.4,89.6,127.6,65.6,157.6c-11.7,14.6-37.9,16.4-78,5.5
	C1149.7,904,1122.8,893.7,1092.3,879.7z"/>
<path class="st1" d="M322.7,533.2c-55.4-25.5-106-51-150.4-76.1c-58-32.7-102-62.8-130.9-89.2c-30.6-28-43-51.2-36.9-68.9
	c12-34.4,90.4-35.2,154.2-29.9l-0.4,5.1c-87.5-7.4-140.4,2-148.8,26.4c-10.8,31.1,49.5,86.5,165.4,151.9
	c118.7,67,282.9,138.1,462.2,200.1s352.3,107.5,487.1,128.1c131.6,20.1,213.3,13.9,224-17.2c8.9-25.8-31.1-68.5-112.6-120.4l2.7-4.3
	c59.3,37.7,127.3,90.1,114.8,126.4c-6.1,17.7-30.2,28.2-71.6,31.4c-39.1,3-92.3-0.6-158.1-10.7c-135.1-20.7-308.3-66.2-488-128.4
	C522.7,618.6,416,576.1,322.7,533.2z"/>
<ellipse transform="matrix(0.1602 -0.9871 0.9871 0.1602 743.1617 1356.9581)" class="st4" cx="1169.1" cy="241.7" rx="29.9" ry="29.9"/>
<circle class="st4" cx="100.5" cy="768.2" r="29.9"/>
</svg>
