<svg id="view1" data-name="view1" xmlns="http://www.w3.org/2000/svg" width="60" height="60" viewBox="0 0 60 60">
  <defs>
    <style>
      .cls-1 {
        fill: #fff;
      }

      .cls-2 {
        fill: #725dff;
      }
    </style>
  </defs>
  <circle class="cls-1" cx="30" cy="30" r="30"/>
  <g>
    <path class="cls-2" d="M44.38,16.88H15.62a1.28,1.28,0,1,0,0,2.55H44.38a1.28,1.28,0,1,0,0-2.55Z"/>
    <path class="cls-2" d="M31,24.32a1.24,1.24,0,0,0-.63-.38h-.06a1,1,0,0,0-.25-.05h0a1.31,1.31,0,0,0-.78.22L16,33.5a1.27,1.27,0,0,0,1.47,2.08l11.37-8V43.15a1.28,1.28,0,1,0,2.55,0V27.69l11.06,7.89A1.28,1.28,0,0,0,43.9,33.5Z"/>
  </g>
</svg>
